HIERARCHY
ROOT Hips
{
  OFFSET 5.84602e-005 68.8428 3.50346
  CHANNELS 6 Xposition Yposition Zposition Zrotation Xrotation Yrotation
  JOINT Spine
  {
    OFFSET 0 8.597 -4.6522
    CHANNELS 3 Zrotation Xrotation Yrotation
    JOINT Spine1
    {
      OFFSET 0 7.8454 0.4098
      CHANNELS 3 Zrotation Xrotation Yrotation
      JOINT Spine2
      {
        OFFSET 0 9.7078 -2.1609
        CHANNELS 3 Zrotation Xrotation Yrotation
        JOINT Neck
        {
          OFFSET 0 21.8761 -0.4549
          CHANNELS 3 Zrotation Xrotation Yrotation
          JOINT Head
          {
            OFFSET 0 12.3537 3.3602
            CHANNELS 3 Zrotation Xrotation Yrotation
            End Site
            {
              OFFSET 0.0001 18.9506 0.5657
            }
          }
        }
        JOINT LeftShoulder
        {
          OFFSET 2.2086 21.1115 7.2329
          CHANNELS 3 Zrotation Xrotation Yrotation
          JOINT LeftArm
          {
            OFFSET 13.1193 3.0282 -4.8998
            CHANNELS 3 Zrotation Xrotation Yrotation
            JOINT LeftForeArm
            {
              OFFSET 27.4081 -0.0973053 -0.2375
              CHANNELS 3 Zrotation Xrotation Yrotation
              JOINT LeftHand
              {
                OFFSET 22.8641 0.0662994 -0.1369
                CHANNELS 3 Zrotation Xrotation Yrotation
                JOINT LeftHandIndex1
                {
                  OFFSET 8.8614 0.775009 2.4612
                  CHANNELS 3 Zrotation Xrotation Yrotation
                  JOINT LeftHandIndex2
                  {
                    OFFSET 3.3146 -0.808304 0.5841
                    CHANNELS 3 Zrotation Xrotation Yrotation
                    JOINT LeftHandIndex3
                    {
                      OFFSET 2.2628 -0.552002 0.3989
                      CHANNELS 3 Zrotation Xrotation Yrotation
                      End Site
                      {
                        OFFSET 1.6102 -0.4807 0.2612
                      }
                    }
                  }
                }
                JOINT LeftHandMiddle1
                {
                  OFFSET 8.9937 0.895004 0.2143
                  CHANNELS 3 Zrotation Xrotation Yrotation
                  JOINT LeftHandMiddle2
                  {
                    OFFSET 4.0984 0.0113983 -0.0242
                    CHANNELS 3 Zrotation Xrotation Yrotation
                    JOINT LeftHandMiddle3
                    {
                      OFFSET 2.2716 0.00689697 -0.0138001
                      CHANNELS 3 Zrotation Xrotation Yrotation
                      End Site
                      {
                        OFFSET 2.0404 -0.1441 0.0027
                      }
                    }
                  }
                }
                JOINT LeftHandRing1
                {
                  OFFSET 8.5234 0.597198 -2.0164
                  CHANNELS 3 Zrotation Xrotation Yrotation
                  JOINT LeftHandRing2
                  {
                    OFFSET 3.7188 -0.188293 -0.2328
                    CHANNELS 3 Zrotation Xrotation Yrotation
                    JOINT LeftHandRing3
                    {
                      OFFSET 2.1191 -0.106598 -0.1332
                      CHANNELS 3 Zrotation Xrotation Yrotation
                      End Site
                      {
                        OFFSET 1.8737 -0.2304 -0.0886
                      }
                    }
                  }
                }
                JOINT LeftHandPinky1
                {
                  OFFSET 7.9094 -0.601089 -3.4825
                  CHANNELS 3 Zrotation Xrotation Yrotation
                  JOINT LeftHandPinky2
                  {
                    OFFSET 2.2874 -0.477005 -0.6314
                    CHANNELS 3 Zrotation Xrotation Yrotation
                    JOINT LeftHandPinky3
                    {
                      OFFSET 1.6774 -0.349396 -0.4633
                      CHANNELS 3 Zrotation Xrotation Yrotation
                      End Site
                      {
                        OFFSET 1.4888 -0.4091 -0.3416
                      }
                    }
                  }
                }
                JOINT LeftHandThumb1
                {
                  OFFSET 1.833 -1.3875 1.3896
                  CHANNELS 3 Zrotation Xrotation Yrotation
                  JOINT LeftHandThumb2
                  {
                    OFFSET 3.4129 -1.121 2.5732
                    CHANNELS 3 Zrotation Xrotation Yrotation
                    JOINT LeftHandThumb3
                    {
                      OFFSET 2.2474 -0.804199 1.6192
                      CHANNELS 3 Zrotation Xrotation Yrotation
                      End Site
                      {
                        OFFSET 1.6527 -0.5689 1.1317
                      }
                    }
                  }
                }
              }
            }
          }
        }
        JOINT RightShoulder
        {
          OFFSET -2.2086 21.1115 7.2329
          CHANNELS 3 Zrotation Xrotation Yrotation
          JOINT RightArm
          {
            OFFSET -13.1216 3.0287 -4.9007
            CHANNELS 3 Zrotation Xrotation Yrotation
            JOINT RightForeArm
            {
              OFFSET -27.4081 -0.0973053 -0.2375
              CHANNELS 3 Zrotation Xrotation Yrotation
              JOINT RightHand
              {
                OFFSET -22.8641 0.0664063 -0.1369
                CHANNELS 3 Zrotation Xrotation Yrotation
                JOINT RightHandIndex1
                {
                  OFFSET -8.8614 0.774994 2.4612
                  CHANNELS 3 Zrotation Xrotation Yrotation
                  JOINT RightHandIndex2
                  {
                    OFFSET -3.3146 -0.808304 0.5841
                    CHANNELS 3 Zrotation Xrotation Yrotation
                    JOINT RightHandIndex3
                    {
                      OFFSET -2.2628 -0.552002 0.3989
                      CHANNELS 3 Zrotation Xrotation Yrotation
                      End Site
                      {
                        OFFSET -1.6102 -0.4807 0.2612
                      }
                    }
                  }
                }
                JOINT RightHandMiddle1
                {
                  OFFSET -8.9937 0.894989 0.2143
                  CHANNELS 3 Zrotation Xrotation Yrotation
                  JOINT RightHandMiddle2
                  {
                    OFFSET -4.0984 0.0113983 -0.0242
                    CHANNELS 3 Zrotation Xrotation Yrotation
                    JOINT RightHandMiddle3
                    {
                      OFFSET -2.2716 0.00691223 -0.0138001
                      CHANNELS 3 Zrotation Xrotation Yrotation
                      End Site
                      {
                        OFFSET -2.0404 -0.1441 0.0027
                      }
                    }
                  }
                }
                JOINT RightHandRing1
                {
                  OFFSET -8.5234 0.597198 -2.0164
                  CHANNELS 3 Zrotation Xrotation Yrotation
                  JOINT RightHandRing2
                  {
                    OFFSET -3.7188 -0.188309 -0.2328
                    CHANNELS 3 Zrotation Xrotation Yrotation
                    JOINT RightHandRing3
                    {
                      OFFSET -2.1191 -0.106598 -0.1332
                      CHANNELS 3 Zrotation Xrotation Yrotation
                      End Site
                      {
                        OFFSET -1.8737 -0.2304 -0.0886
                      }
                    }
                  }
                }
                JOINT RightHandPinky1
                {
                  OFFSET -7.9094 -0.601105 -3.4825
                  CHANNELS 3 Zrotation Xrotation Yrotation
                  JOINT RightHandPinky2
                  {
                    OFFSET -2.2874 -0.477005 -0.6314
                    CHANNELS 3 Zrotation Xrotation Yrotation
                    JOINT RightHandPinky3
                    {
                      OFFSET -1.6774 -0.349396 -0.4633
                      CHANNELS 3 Zrotation Xrotation Yrotation
                      End Site
                      {
                        OFFSET -1.4888 -0.4091 -0.3416
                      }
                    }
                  }
                }
                JOINT RightHandThumb1
                {
                  OFFSET -1.833 -1.38751 1.3896
                  CHANNELS 3 Zrotation Xrotation Yrotation
                  JOINT RightHandThumb2
                  {
                    OFFSET -3.41299 -1.12099 2.5732
                    CHANNELS 3 Zrotation Xrotation Yrotation
                    JOINT RightHandThumb3
                    {
                      OFFSET -2.24741 -0.804108 1.6192
                      CHANNELS 3 Zrotation Xrotation Yrotation
                      End Site
                      {
                        OFFSET -1.6527 -0.5689 1.1317
                      }
                    }
                  }
                }
              }
            }
          }
        }
      }
    }
  }
  JOINT RightUpLeg
  {
    OFFSET -9.1966 3.8861 -0.7581
    CHANNELS 3 Zrotation Xrotation Yrotation
    JOINT RightLeg
    {
      OFFSET -0.7359 -41.0265 0
      CHANNELS 3 Zrotation Xrotation Yrotation
      JOINT RightFoot
      {
        OFFSET 0 -40.2855 0
        CHANNELS 3 Zrotation Xrotation Yrotation
        JOINT RightToeBase
        {
          OFFSET 0 -5.6122 11.7359
          CHANNELS 3 Zrotation Xrotation Yrotation
          End Site
          {
            OFFSET 0 0 7.8731
          }
        }
      }
    }
  }
  JOINT LeftUpLeg
  {
    OFFSET 9.1965 3.8864 -0.7581
    CHANNELS 3 Zrotation Xrotation Yrotation
    JOINT LeftLeg
    {
      OFFSET 0.7359 -41.0268 0
      CHANNELS 3 Zrotation Xrotation Yrotation
      JOINT LeftFoot
      {
        OFFSET 0 -40.2855 0
        CHANNELS 3 Zrotation Xrotation Yrotation
        JOINT LeftToeBase
        {
          OFFSET 0 -5.6122 11.7359
          CHANNELS 3 Zrotation Xrotation Yrotation
          End Site
          {
            OFFSET 0 0 7.8731
          }
        }
      }
    }
  }
}
MOTION
Frames:	6
Frame Time:	0.0333333
5.84602e-005 68.8428 3.50346 0 0 -0 0 0 -0 0 0 -0 0 0 -0 0 0 -0 0 0 -0 0 0 -0 0 0 -0 0 0 -0 0 0 -0 0 0 -0 0 0 -0 0 0 -0 0 0 -0 -0.0146107 -8.87603e-005 -2.63497e-007 2.99804e-018 -2.42657e-020 -1.42182e-022 0 0 -0 -0.0187562 -0.001176 5.858e-005 5.06224e-018 3.88251e-019 1.21329e-020 0 0 -0 -0.012269 -0.00324817 0.000675346 -1.74678e-018 3.88251e-019 -0 0 0 -0 0 0 -0 0 0 -0 0 0 -0 0 0 -0 0 0 -0 0 0 -0 0 0 -0 0 0 -0 0 0 -0 0 0 -0 0.0149955 -9.10982e-005 2.64101e-007 -9.69331e-018 1.21329e-020 -4.7394e-023 0 0 -0 0.0189956 -0.00119102 -5.96516e-005 -5.41541e-019 0 2.42657e-020 0 0 -0 0.0122698 -0.00324857 -0.000673756 -2.00796e-019 0 -1.94126e-019 0 0 -0 0 0 -0 0 0 -0 3.39842 1.33031 -0.0637918 -5.65207e-008 0.834868 -0.000436188 -3.39935 -2.16518 -0.0642563 -8.89002e-024 -1.18485e-023 -1.48106e-024 -3.39844 1.35642 0.0640283 -3.18788e-007 0.782166 -0.000588827 3.39931 -2.13858 0.0634662 1.1399e-023 0 -0 
-0.250109 39.2432 51.4903 132.698 -66.6673 -0.476482 -0.22444 5.58566 -0.120423 -0.440295 11.1718 -0.220228 -0.440293 11.1718 -0.220247 2.68645e-006 6.66082 -1.73707e-005 -1.16034e-005 -47.4632 -8.99733e-006 20.9555 -28.3712 6.17996 -37.7342 1.74006 -41.3021 -71.1765 -63.9833 -124.488 -26.8833 -2.18047 -12.9197 2.93762e-007 -1.81513e-007 1.22344e-006 1.07344e-014 -3.18055e-015 -0 1.31198e-014 3.18055e-015 3.18055e-015 2.93762e-007 -1.81513e-007 1.22344e-006 -0.014618 -8.71938e-005 -2.79424e-006 -3.97569e-016 -3.18055e-015 3.18055e-015 2.93762e-007 -1.81513e-007 1.22344e-006 -0.0187299 -0.00117792 6.59796e-005 2.92416e-007 -1.81798e-007 1.22341e-006 2.93762e-007 -1.81513e-007 1.22344e-006 -0.0121908 -0.00322605 0.000673044 2.92911e-007 -1.81879e-007 1.22346e-006 2.93762e-007 -1.81513e-007 1.22344e-006 1.07344e-014 -3.18055e-015 -0 1.31198e-014 3.18055e-015 3.18055e-015 -22.1391 -28.166 -7.73344 38.0445 2.20791 41.0075 71.2167 -64.0642 124.606 26.1175 -2.46836 13.667 3.37534e-006 -2.91965e-007 -9.89851e-007 4.19141e-006 2.80425e-006 5.83463e-008 -1.28904e-007 -1.02401e-006 -2.07221e-006 3.37534e-006 -2.91965e-007 -9.89851e-007 0.0150047 -8.9922e-005 1.27214e-006 -1.28816e-007 -1.02428e-006 -2.07207e-006 3.37534e-006 -2.91965e-007 -9.89851e-007 0.0189863 -0.00118373 -6.45761e-005 -1.28811e-007 -1.02436e-006 -2.07204e-006 3.37534e-006 -2.91965e-007 -9.89851e-007 0.0123169 -0.00325307 -0.000680365 -1.28883e-007 -1.02425e-006 -2.0721e-006 3.37534e-006 -2.91965e-007 -9.89851e-007 4.19141e-006 2.80425e-006 5.83463e-008 -1.28904e-007 -1.02401e-006 -2.07221e-006 -47.1347 -49.8499 -35.535 26.5037 64.0096 -31.3871 -9.34348 28.2323 0.634729 -4.86014e-007 3.03761e-006 9.09732e-007 40.3695 -48.0482 29.2576 -26.3833 63.8441 31.9772 9.18075 26.9918 -1.69835 2.15727e-006 -3.67293e-006 9.34078e-007 
0.818793 19.8519 70.5107 15.3856 -83.3257 -177.645 -0.300452 8.08879 -0.205988 -0.580003 16.1786 -0.374317 -0.580003 16.1786 -0.374318 -9.18071e-006 9.65765 8.64696e-006 -2.69082e-006 -68.6117 -4.36994e-007 32.9531 -40.8101 10.1578 -53.9447 1.50267 -59.8249 -84.0683 -23.1955 -146.346 -39.4357 -3.01717 -18.8148 -0 -2.78299e-015 -0 4.41391e-032 -3.18055e-015 7.95139e-016 1.65521e-032 -1.19271e-015 7.95139e-016 -0 -2.78299e-015 -0 -0.0146296 -8.83508e-005 -1.33564e-006 -3.18055e-015 2.38542e-015 7.95139e-016 -0 -2.78299e-015 -0 -0.0187419 -0.00117542 5.98913e-005 -9.44718e-007 5.52461e-007 4.71008e-007 -0 -2.78299e-015 -0 -0.0122734 -0.00324871 0.000674059 -3.18055e-015 3.97569e-015 7.95139e-016 -0 -2.78299e-015 -0 4.41391e-032 -3.18055e-015 7.95139e-016 1.65521e-032 -1.19271e-015 7.95139e-016 -35.2159 -40.3746 -12.6951 54.2064 1.97116 59.4166 84.0208 -23.2375 146.487 38.4053 -3.39864 19.874 1.52311e-006 2.84065e-006 -4.78495e-008 1.27222e-014 1.59028e-015 3.57812e-015 1.52311e-006 2.84065e-006 -4.78495e-008 1.52311e-006 2.84065e-006 -4.78495e-008 0.0149966 -9.09554e-005 -4.21702e-006 2.11436e-006 5.42013e-006 4.11217e-006 1.52311e-006 2.84065e-006 -4.78495e-008 0.018986 -0.0011937 -5.89276e-005 1.52288e-006 2.84066e-006 -4.83353e-008 1.52311e-006 2.84065e-006 -4.78495e-008 0.0122347 -0.00324061 -0.000672719 1.52294e-006 2.84069e-006 -4.81875e-008 1.52311e-006 2.84065e-006 -4.78495e-008 1.27222e-014 1.59028e-015 3.57812e-015 1.52311e-006 2.84065e-006 -4.78495e-008 -100.659 -57.3821 -74.9244 113.566 70.5508 -116.017 -11.597 40.257 0.760984 -3.48795e-006 2.12607e-006 5.01723e-006 89.4538 -60.8004 66.6011 -112.701 70.5884 115.558 11.8079 40.04 -0.515348 1.86445e-007 -3.22726e-006 -7.00276e-007 
-0.0169911 24.0189 66.4142 89.3125 -89.7452 -90.4204 -0.284216 7.50909 -0.185816 -0.550821 15.0195 -0.338093 -0.55082 15.0194 -0.338093 -1.34872e-006 8.99159 -9.50292e-007 2.83651e-007 -63.4457 4.18762e-007 30.0515 -37.9341 8.51507 -50.1323 1.14103 -55.5518 -84.5843 -32.8836 -145.651 -36.9393 -2.71613 -17.653 -1.19622e-006 -1.05909e-006 -5.21531e-007 1.59028e-015 -6.75868e-015 -1.98785e-015 1.40693e-031 -6.75868e-015 1.19271e-015 -1.19622e-006 -1.05909e-006 -5.21531e-007 -0.0146115 -9.10703e-005 -1.1566e-006 4.41391e-032 -7.95139e-016 3.18055e-015 -1.19622e-006 -1.05909e-006 -5.21531e-007 -0.0187494 -0.0011757 5.78309e-005 3.18055e-015 1.74931e-014 3.18055e-015 -1.19622e-006 -1.05909e-006 -5.21531e-007 -0.0122595 -0.0032466 0.000673611 -3.10353e-031 7.45443e-015 2.38542e-015 -1.19622e-006 -1.05909e-006 -5.21531e-007 1.59028e-015 -6.75868e-015 -1.98785e-015 1.40693e-031 -6.75868e-015 1.19271e-015 -31.9117 -37.5858 -10.7175 50.3948 1.61956 55.198 84.5505 -32.927 145.785 36.0059 -3.05186 18.5776 5.88177e-006 -6.71969e-007 1.32045e-006 2.45305e-006 -2.0249e-006 1.08838e-006 2.27575e-006 -1.93723e-006 2.00103e-006 5.88177e-006 -6.71969e-007 1.32045e-006 0.0149711 -8.84444e-005 -4.43521e-007 2.45313e-006 -2.02476e-006 1.08864e-006 5.88177e-006 -6.71969e-007 1.32045e-006 0.0190059 -0.00118899 -5.6862e-005 2.45316e-006 -2.02472e-006 1.08869e-006 5.88177e-006 -6.71969e-007 1.32045e-006 0.0122585 -0.00324464 -0.000663785 2.45316e-006 -2.02478e-006 1.08852e-006 5.88177e-006 -6.71969e-007 1.32045e-006 2.45305e-006 -2.0249e-006 1.08838e-006 2.27575e-006 -1.93723e-006 2.00103e-006 -87.1715 -57.4993 -65.1406 93.2368 73.305 -96.6114 -11.2194 37.316 0.682141 -3.19705e-006 1.27506e-006 1.17621e-006 76.1487 -59.3784 56.1426 -93.323 73.239 96.7393 11.1387 36.7936 -0.573066 -1.12918e-006 6.61384e-007 -3.0591e-006 
-0.0169903 24.0189 66.4142 89.3125 -89.7452 -90.4204 -0.283378 7.49006 -0.186316 -0.549079 14.9814 -0.339298 -0.549079 14.9814 -0.339299 -4.93368e-006 8.99157 -4.72731e-007 -3.33533e-007 -63.0641 -7.13279e-007 30.0165 -37.8223 8.01461 -49.9567 0.766183 -55.4206 -85.0435 -33.1622 -145.786 -37.1914 -2.61536 -17.7746 -1.19626e-006 -1.05908e-006 -5.2145e-007 -4.51067e-006 2.74363e-007 -1.64665e-006 -1.32417e-031 4.77083e-015 1.59028e-015 -1.19626e-006 -1.05908e-006 -5.2145e-007 -0.014607 -9.07997e-005 7.70612e-007 -3.18055e-015 -7.95139e-015 -0 -1.19626e-006 -1.05908e-006 -5.2145e-007 -0.0187573 -0.00117458 6.08541e-005 -4.19084e-008 1.58497e-007 -6.31007e-007 -1.19626e-006 -1.05908e-006 -5.2145e-007 -0.0122803 -0.00325386 0.000676061 -3.18055e-015 7.15625e-015 -1.19271e-015 -1.19626e-006 -1.05908e-006 -5.2145e-007 -4.51067e-006 2.74363e-007 -1.64665e-006 -1.32417e-031 4.77083e-015 1.59028e-015 -31.7777 -37.4913 -10.1467 50.2077 1.24009 55.09 84.9987 -33.1991 145.915 36.2916 -2.92945 18.6459 -2.45308e-006 2.02484e-006 -1.08837e-006 -2.45308e-006 2.02484e-006 -1.08837e-006 -1.22654e-006 1.01242e-006 -5.44183e-007 -2.45308e-006 2.02484e-006 -1.08837e-006 0.0149827 -9.04518e-005 -1.2368e-006 -1.22658e-006 1.01235e-006 -5.44314e-007 -2.45308e-006 2.02484e-006 -1.08837e-006 0.0189609 -0.00118792 -5.32563e-005 -1.22659e-006 1.01233e-006 -5.44338e-007 -2.45308e-006 2.02484e-006 -1.08837e-006 0.0122965 -0.00325244 -0.000674799 -1.22659e-006 1.01236e-006 -5.44255e-007 -2.45308e-006 2.02484e-006 -1.08837e-006 -2.45308e-006 2.02484e-006 -1.08837e-006 -1.22654e-006 1.01242e-006 -5.44183e-007 -87.1715 -57.4993 -65.1406 93.237 73.3049 -96.6115 -11.2194 37.316 0.682158 -1.07949e-006 5.11849e-006 -7.6888e-007 76.1487 -59.3784 56.1427 -93.3228 73.239 96.739 11.1387 36.7937 -0.573063 -3.00685e-006 5.23673e-006 -1.16206e-006 
-0.0169903 24.0189 66.4142 89.3125 -89.7452 -90.4204 -0.282536 7.47098 -0.186811 -0.547337 14.9433 -0.340493 -0.547337 14.9433 -0.340493 -1.47926e-005 8.99208 5.48837e-006 -3.11484e-007 -62.6824 -4.61815e-007 29.9827 -37.7102 7.51483 -49.7803 0.391631 -55.2883 -85.505 -33.4399 -145.924 -37.4434 -2.51408 -17.8957 -1.24028e-006 -9.0062e-007 -1.15275e-006 -2.31599e-006 -3.46147e-006 4.97761e-006 -1.24028e-006 -9.00619e-007 -1.15275e-006 -1.24028e-006 -9.0062e-007 -1.15275e-006 -0.0146126 -9.34752e-005 9.63357e-006 -1.239e-006 -9.00464e-007 -1.15287e-006 -1.24028e-006 -9.0062e-007 -1.15275e-006 -0.0187747 -0.0011798 4.9517e-005 -1.19635e-006 -1.05898e-006 -5.21542e-007 -1.24028e-006 -9.0062e-007 -1.15275e-006 -0.0122335 -0.00324167 0.000673966 -1.14273e-006 -1.90986e-007 -4.64753e-006 -1.24028e-006 -9.0062e-007 -1.15275e-006 -2.31599e-006 -3.46147e-006 4.97761e-006 -1.24028e-006 -9.00619e-007 -1.15275e-006 -31.645 -37.3957 -9.57676 50.0199 0.860893 54.9809 85.4492 -33.4704 146.049 36.5772 -2.80668 18.7134 1.40357e-006 -1.0997e-006 -3.69004e-007 2.4531e-006 -2.02479e-006 1.08836e-006 1.22655e-006 -1.01239e-006 5.4418e-007 1.40357e-006 -1.0997e-006 -3.69004e-007 0.0150109 -9.09461e-005 -4.34369e-007 1.22659e-006 -1.01232e-006 5.44312e-007 1.40357e-006 -1.0997e-006 -3.69004e-007 0.0190044 -0.00119494 -5.64093e-005 1.22661e-006 -1.01231e-006 5.44335e-007 1.40357e-006 -1.0997e-006 -3.69004e-007 0.0122789 -0.00325707 -0.000675421 1.2266e-006 -1.01234e-006 5.44252e-007 1.40357e-006 -1.0997e-006 -3.69004e-007 2.4531e-006 -2.02479e-006 1.08836e-006 1.22655e-006 -1.01239e-006 5.4418e-007 -87.1715 -57.4993 -65.1406 93.2369 73.3049 -96.6114 -11.2194 37.316 0.682152 -3.18055e-015 -3.18055e-015 -3.18055e-015 76.1487 -59.3784 56.1427 -93.3228 73.239 96.739 11.1387 36.7937 -0.573063 -3.00685e-006 5.23673e-006 -1.16206e-006 
